HIERARCHY
ROOT Hips
{
	OFFSET 0.000000 8.830580 0.000000
	CHANNELS 6 Xposition Yposition Zposition Zrotation Yrotation Xrotation 
	JOINT Spine
	{
		OFFSET 0.000000 0.010000 0.000000
		CHANNELS 3 Zrotation Yrotation Xrotation
		JOINT Spine1
		{
			OFFSET 0.000000 2.459130 0.000000
			CHANNELS 3 Zrotation Yrotation Xrotation
			JOINT Neck
			{
				OFFSET 0.000000 2.484630 0.000000
				CHANNELS 3 Zrotation Yrotation Xrotation
				JOINT Head_virtual
				{
					OFFSET 0.000000 0.000000 0.000000
					CHANNELS 3 Zrotation Yrotation Xrotation
					JOINT Head
					{
						OFFSET 0.000000 0.927525 0.000000
						CHANNELS 3 Zrotation Yrotation Xrotation
						End Site
						{
							OFFSET 0.000000 0.000000 0.000000
						}
					}
				}
				JOINT LeftUpArm_virtual
				{
					OFFSET 0.000000 0.000000 0.000000
					CHANNELS 3 Zrotation Yrotation Xrotation
					JOINT LeftUpArm
					{
						OFFSET 1.248820 0.000000 0.000000
						CHANNELS 3 Zrotation Yrotation Xrotation
						JOINT LeftForeArm
						{
							OFFSET 2.597580 0.000000 0.000000
							CHANNELS 3 Zrotation Yrotation Xrotation
							JOINT LeftHand
							{
								OFFSET 2.455420 0.000000 0.000000
								CHANNELS 3 Zrotation Yrotation Xrotation
								End Site
								{
									OFFSET 0.000000 0.000000 0.000000
								}
							}
						}
					}
				}
				JOINT RightUpArm_virtual
				{
					OFFSET -0.000000 -0.000000 -0.000000
					CHANNELS 3 Zrotation Yrotation Xrotation
					JOINT RightUpArm
					{
						OFFSET -1.248820 -0.000000 -0.000000
						CHANNELS 3 Zrotation Yrotation Xrotation
						JOINT RightForeArm
						{
							OFFSET -2.597580 -0.000000 -0.000000
							CHANNELS 3 Zrotation Yrotation Xrotation
							JOINT RightHand
							{
								OFFSET -2.455420 -0.000000 -0.000000
								CHANNELS 3 Zrotation Yrotation Xrotation
								End Site
								{
									OFFSET 0.000000 0.000000 0.000000
								}
							}
						}
					}
				}
			}
		}
	}
	JOINT LeftUpLeg
	{
		OFFSET 1.271939 0.000000 0.000000
		CHANNELS 3 Zrotation Yrotation Xrotation
		JOINT LeftLowLeg
		{
			OFFSET 0.000000 -4.342910 0.000000
			CHANNELS 3 Zrotation Yrotation Xrotation
			JOINT LeftFoot
			{
				OFFSET 0.000000 -4.487670 0.000000
				CHANNELS 3 Zrotation Yrotation Xrotation
				JOINT LeftToeBase
				{
					OFFSET 0.000000 0.000000 1.515070
					CHANNELS 3 Zrotation Yrotation Xrotation
					End Site
					{
						OFFSET 0.000000 0.000000 0.000000
					}
				}
			}
		}
	}
	JOINT RightUpLeg
	{
		OFFSET -1.271939 0.000000 0.000000
		CHANNELS 3 Zrotation Yrotation Xrotation
		JOINT RightLowLeg
		{
			OFFSET 0.000000 -4.342910 0.000000
			CHANNELS 3 Zrotation Yrotation Xrotation
			JOINT RightFoot
			{
				OFFSET 0.000000 -4.487670 0.000000
				CHANNELS 3 Zrotation Yrotation Xrotation
				JOINT RightToeBase
				{
					OFFSET 0.000000 0.000000 1.515070
					CHANNELS 3 Zrotation Yrotation Xrotation
					End Site
					{
						OFFSET 0.000000 0.000000 0.000000
					}
				}
			}
		}
	}
}
MOTION
Frames: 11
Frame Time: 0.041667
-18.800575 9.168203 33.984116 -173.681522 5.971394 -172.416051 2.589926 0.189175 -7.859473 5.021561 0.623731 -10.979659 0.000000 0.000000 0.000000 -9.417625 -4.623952 29.433932 17.003676 11.089837 -84.609881 -24.528999 12.691700 -16.151100 15.005200 -9.966830 -25.089300 0.000000 -13.796300 0.000000 22.470100 5.762830 20.801201 22.006901 -8.166600 -4.250000 -12.265200 -3.079950 -44.671398 0.000000 17.948700 0.000000 -22.223600 -13.411300 50.995998 3.724401 8.666853 -5.617063 0.000000 0.000000 6.940230 -16.085298 10.817288 -0.084706 0.000000 0.000000 -31.126900 5.304369 5.563095 -7.138727 0.000000 0.000000 9.144880 17.511751 -15.640597 5.473156 0.000000 0.000000 -38.142200 
-18.798527 9.167685 33.977653 -173.679465 5.979861 -172.362620 2.544406 0.198340 -7.869478 5.075646 0.643455 -11.021603 0.000000 0.000000 0.000000 -9.367599 -4.690250 29.680176 16.998024 11.127813 -84.475263 -24.720501 12.884500 -15.912500 14.982400 -9.703830 -25.419001 0.000000 -14.138200 0.000000 22.718300 5.673100 21.035000 22.205601 -8.362650 -3.946014 -12.320200 -3.067100 -44.083199 0.000000 17.780701 0.000000 -22.548500 -12.504900 51.424999 3.733762 8.643251 -5.605480 0.000000 0.000000 6.904080 -16.104188 10.841375 -0.123810 0.000000 0.000000 -31.089800 5.314715 5.599064 -7.102309 0.000000 0.000000 9.052290 17.530432 -15.697089 5.440572 0.000000 0.000000 -38.058201 
-18.796801 9.167091 33.971773 -173.677467 6.002596 -172.337666 2.512941 0.226468 -7.838962 5.103761 0.681842 -11.093596 0.000000 0.000000 0.000000 -9.320405 -4.759757 29.929921 16.976214 11.138686 -84.283335 -24.865999 13.065700 -15.715200 14.813700 -9.433210 -25.744200 0.000000 -14.555700 0.000000 23.070400 5.424020 21.184500 22.388100 -8.555970 -3.511993 -12.295500 -3.094680 -43.672798 0.000000 17.723900 0.000000 -22.891100 -12.050500 51.441700 3.742723 8.651045 -5.580934 0.000000 0.000000 6.895170 -16.154997 10.834455 -0.168097 0.000000 0.000000 -31.079201 5.328749 5.570821 -7.049925 0.000000 0.000000 8.972860 17.550751 -15.686381 5.430529 0.000000 0.000000 -38.034100 
-18.795468 9.166441 33.966483 -173.678121 6.020103 -172.325923 2.493716 0.237372 -7.778307 5.112083 0.701755 -11.182649 0.000000 0.000000 0.000000 -9.241775 -4.880733 30.210385 16.813206 11.199465 -84.103985 -25.058001 13.308400 -15.489500 14.649200 -9.212810 -26.097401 0.000000 -14.967900 0.000000 23.392099 5.084950 20.914301 22.537800 -8.711320 -3.115997 -12.207800 -3.128830 -43.249500 0.000000 17.671000 0.000000 -22.934099 -11.824900 51.098801 3.750205 8.589989 -5.557019 0.000000 0.000000 6.903540 -16.175882 10.904414 -0.229851 0.000000 0.000000 -31.061600 5.334064 5.620561 -7.001076 0.000000 0.000000 8.923880 17.595313 -15.734900 5.381889 0.000000 0.000000 -37.955900 
-18.794767 9.166036 33.961832 -173.679821 6.028571 -172.311551 2.490594 0.258461 -7.765570 5.099398 0.724595 -11.192607 0.000000 0.000000 0.000000 -9.198637 -4.895680 30.498501 16.845343 11.242076 -83.923490 -25.295900 13.509100 -15.353600 14.481900 -9.043100 -26.283400 0.000000 -15.368800 0.000000 23.621700 4.767380 20.812901 22.689501 -8.928940 -2.776001 -12.026000 -3.057850 -43.205299 0.000000 17.664600 0.000000 -22.887501 -11.586200 50.818802 3.751758 8.544970 -5.547399 0.000000 0.000000 6.921520 -16.230014 10.944762 -0.290280 0.000000 0.000000 -31.100599 5.334415 5.650354 -6.966937 0.000000 0.000000 8.883200 17.628308 -15.768380 5.357334 0.000000 0.000000 -37.947800 
-18.793635 9.165890 33.956544 -173.683541 6.006659 -172.308501 2.499073 0.267546 -7.780655 5.070792 0.730696 -11.157019 0.000000 0.000000 0.000000 -9.142217 -4.997514 30.798992 16.831467 11.271129 -83.751013 -25.552401 13.695100 -15.069100 14.344600 -8.850440 -26.384399 0.000000 -15.751600 0.000000 23.870001 4.476290 20.684200 22.854500 -9.131930 -2.488007 -11.770200 -2.980830 -43.324799 0.000000 17.695700 0.000000 -22.815100 -11.087300 50.341702 3.758434 8.550321 -5.527472 0.000000 0.000000 6.939560 -16.261973 10.899838 -0.316103 0.000000 0.000000 -31.056000 5.340987 5.662533 -6.913972 0.000000 0.000000 8.840580 17.672310 -15.813495 5.321403 0.000000 0.000000 -37.909901 
-18.792604 9.165644 33.951783 -173.667561 5.962444 -172.302237 2.543517 0.258455 -7.793220 5.022493 0.710719 -11.105665 0.000000 0.000000 0.000000 -9.113489 -5.017008 31.089787 16.828629 11.310897 -83.611010 -25.826599 13.855800 -14.720500 14.270000 -8.597840 -26.434299 0.000000 -16.095100 0.000000 23.977100 4.220150 20.577801 23.040400 -9.444250 -2.292999 -11.480900 -2.674200 -43.636398 0.000000 17.674801 0.000000 -22.779900 -10.469200 49.939499 3.796009 8.393544 -5.483603 0.000000 0.000000 6.896530 -16.287838 10.974594 -0.355808 0.000000 0.000000 -31.033001 5.365540 5.711959 -6.868255 0.000000 0.000000 8.809760 17.747397 -15.894751 5.266109 0.000000 0.000000 -37.823700 
-18.791388 9.165153 33.947012 -173.672497 5.882531 -172.297353 2.569891 0.211616 -7.781774 4.989546 0.661558 -11.153753 0.000000 0.000000 0.000000 -9.113527 -5.066279 31.433888 16.832103 11.278164 -83.419207 -26.053600 13.952900 -14.383000 14.181800 -8.272730 -26.412300 0.000000 -16.376600 0.000000 23.938700 3.994530 20.458300 23.095200 -9.562270 -2.230988 -11.048700 -2.554440 -43.734001 0.000000 17.733500 0.000000 -22.739000 -9.971880 49.518902 3.812886 8.241640 -5.454561 0.000000 0.000000 6.861560 -16.303254 11.034662 -0.381147 0.000000 0.000000 -31.036301 5.375925 5.686971 -6.807353 0.000000 0.000000 8.747130 17.756219 -15.942914 5.223525 0.000000 0.000000 -37.815001 
-18.789857 9.164367 33.942344 -173.681177 5.777221 -172.300017 2.545209 0.173557 -7.795726 5.041099 0.627627 -11.167478 0.000000 0.000000 0.000000 -9.113634 -5.172779 31.778126 16.739848 11.224405 -83.221506 -26.202101 13.958100 -14.042300 13.962000 -7.945920 -26.353701 0.000000 -16.572500 0.000000 23.966299 3.824780 20.391001 23.118299 -9.672980 -2.078003 -10.690900 -2.498180 -43.888100 0.000000 17.721800 0.000000 -22.498100 -9.608100 48.955700 3.819103 8.200419 -5.442807 0.000000 0.000000 6.854960 -16.353472 10.986442 -0.397587 0.000000 0.000000 -31.093399 5.387422 5.674709 -6.725460 0.000000 0.000000 8.664730 17.797234 -16.021193 5.159196 0.000000 0.000000 -37.798201 
-18.788207 9.163691 33.938452 -173.692551 5.655001 -172.279180 2.502481 0.130994 -7.840611 5.132300 0.591418 -11.172803 0.000000 0.000000 0.000000 -9.133248 -5.300119 32.151716 16.696631 11.154110 -83.079779 -26.323700 13.930000 -13.696500 13.691800 -7.670350 -26.461201 0.000000 -16.645901 0.000000 24.005600 3.737350 20.248699 23.131300 -9.764440 -1.869995 -10.398800 -2.442020 -44.149300 0.000000 17.646099 0.000000 -22.335501 -9.470850 48.789299 3.823877 8.176628 -5.466780 0.000000 0.000000 6.859180 -16.311850 10.924739 -0.401272 0.000000 0.000000 -31.064899 5.392467 5.696979 -6.677480 0.000000 0.000000 8.596400 17.873857 -16.119016 5.069071 0.000000 0.000000 -37.769100 
-18.786681 9.163092 33.934628 -173.712151 5.508904 -172.271925 2.468221 0.078221 -7.874597 5.197814 0.542032 -11.148306 0.000000 0.000000 0.000000 -9.095635 -5.538550 32.424294 16.340730 11.114306 -82.891127 -26.419800 13.977900 -13.516900 13.368300 -7.646290 -26.862499 0.000000 -16.543200 0.000000 23.915701 3.760510 20.133499 23.121599 -9.809630 -1.845001 -10.105400 -2.381380 -44.327999 0.000000 17.537001 0.000000 -22.301201 -9.498550 48.721199 3.818647 8.199685 -5.489054 0.000000 0.000000 6.872760 -16.337690 10.761076 -0.373773 0.000000 0.000000 -31.098101 5.395403 5.688264 -6.605098 0.000000 0.000000 8.504980 17.924164 -16.230808 4.990477 0.000000 0.000000 -37.766300 
